<?xml version="1.0" encoding="utf-8"?>
<!-- Generator: Adobe Illustrator 24.1.3, SVG Export Plug-In . SVG Version: 6.00 Build 0)  -->
<svg version="1.1" id="Layer_1" xmlns="http://www.w3.org/2000/svg" xmlns:xlink="http://www.w3.org/1999/xlink" x="0px" y="0px"
	 viewBox="0 0 320 372.9" style="enable-background:new 0 0 320 372.9;" xml:space="preserve">
<style type="text/css">
	.st0{opacity:0.3;}
	.st1{fill:#000072;}
	.st2{fill:#F7C714;}
	.st3{opacity:0.6;}
	.st4{fill:#FFFFFF;}
	.st5{opacity:0.45;}
</style>
<g>
	<g>
		<g class="st0">
			<g>
				<g>
					<ellipse class="st1" cx="161.9" cy="360.6" rx="115.7" ry="12"/>
				</g>
			</g>
		</g>
		<g>
			<g>
				<g>
					<g>
						<g>
							<path class="st2" d="M171.1,26.7h-23.2c-2,0-3.6-1.5-3.6-3.4V12c0-1.9,1.6-3.4,3.6-3.4h23.3c2,0,3.6,1.5,3.6,3.4v11.3
								C174.8,25.2,173.1,26.7,171.1,26.7z"/>
						</g>
					</g>
				</g>
			</g>
			<g class="st3">
				<g>
					<g>
						<path class="st4" d="M151,20.5c0-1.6,1.4-2.8,2.9-2.8h20.4v-1.2c0-2.8-2.4-5.1-5.3-5.1h-19.3c-2.9,0-5.3,2.3-5.3,5.1v8
							c0,2.8,2.4,5.1,5.3,5.1h1.2L151,20.5L151,20.5z"/>
					</g>
				</g>
			</g>
			<g>
				<g>
					<g>
						<g>
							<path class="st1" d="M173.2,31h-27.8c-7.8,0-14-4.5-14-10.2v-8.7c0-5.6,6.3-10.2,14-10.2h27.8c7.8,0,14,4.5,14,10.2v8.7
								C187.1,26.5,181,31,173.2,31z M145.5,11.4c-0.6,0-1.2,0.3-1.2,0.9v8.7c0,0.4,0.4,0.9,1.2,0.9h27.8c0.6,0,1.2-0.3,1.2-0.9
								v-8.7c0-0.4-0.4-0.9-1.2-0.9C173.2,11.4,145.5,11.4,145.5,11.4z"/>
						</g>
					</g>
				</g>
			</g>
			<g>
				<g>
					<g>
						<g>
							<rect x="150.2" y="26.7" class="st2" width="19" height="31.1"/>
						</g>
					</g>
					<g>
						<g>
							<path class="st1" d="M169.2,62.1h-19c-2.4,0-4.3-1.9-4.3-4.3V26.7c0-2.4,1.9-4.3,4.3-4.3h19c2.4,0,4.3,1.9,4.3,4.3v31.1
								C173.5,60.1,171.6,62.1,169.2,62.1z M154.5,53.5h10.4V31h-10.4V53.5z"/>
						</g>
					</g>
				</g>
			</g>
			<g class="st0">
				<g>
					<g>
						<g>
							<rect x="150.2" y="26.7" class="st1" width="19" height="31.1"/>
						</g>
					</g>
				</g>
			</g>
			<g>
				<g>
					<g>
						<g>
							<path class="st2" d="M266.9,71.5L287,91.3c2,2,5.2,1.9,7.1-0.1l9.9-10c2-2,1.9-5.2-0.1-7.1l-20.1-19.8c-2-2-5.2-1.9-7.1,0.1
								l-9.9,10C264.8,66.4,264.9,69.6,266.9,71.5z"/>
						</g>
					</g>
				</g>
			</g>
			<g class="st3">
				<g>
					<g>
						<path class="st4" d="M268.3,73l8.3-8.4c2-2,5.1-2,7.1-0.1l18.6,18.3l1.5-1.6c2-2,1.9-5.2-0.1-7.1l-20.1-19.8
							c-2-2-5.2-1.9-7.1,0.1l-9.9,10c-2,2-1.9,5.2,0.1,7.1L268.3,73z"/>
					</g>
				</g>
			</g>
			<g>
				<g>
					<g>
						<g>
							<path class="st1" d="M293.3,102.4c-3,0-6.1-1.1-8.4-3.4l-24.4-24.2l0,0c-2.3-2.2-3.5-5.3-3.5-8.4c0-3.2,1.2-6.2,3.4-8.6
								l12-12.2c4.6-4.8,12.3-4.8,16.9-0.1l24.4,24.2c2.3,2.2,3.5,5.3,3.5,8.4s-1.2,6.2-3.4,8.6l-12,12.2
								C299.5,101.2,296.3,102.4,293.3,102.4z M280.8,53.6c-0.1,0-0.1,0-0.1,0.1l-12,12.2l-0.1,0.1c0,0.1,0,0.1,0.1,0.1l0,0
								l24.4,24.2c0.1,0.1,0.2,0.1,0.4,0l12-12.2l0.1-0.1c0-0.1,0-0.1-0.1-0.1L281,53.7C280.9,53.7,280.9,53.6,280.8,53.6z"/>
						</g>
					</g>
				</g>
			</g>
			<g>
				<g>
					<g>
						<g>
							
								<rect x="250.6" y="83.1" transform="matrix(0.7018 -0.7124 0.7124 0.7018 13.4352 217.1961)" class="st2" width="31.1" height="19"/>
						</g>
					</g>
					<g>
						<g>
							<path class="st1" d="M262,115.1c-1.2,0-2.4-0.5-3.4-1.4l-13.5-13.3c-0.9-0.9-1.4-2.1-1.4-3.4s0.5-2.5,1.4-3.4l21.8-22.1
								c1.9-1.9,4.9-1.9,6.8-0.1l13.5,13.3c0.9,0.9,1.4,2.1,1.4,3.4s-0.5,2.5-1.4,3.4l-21.8,22.1C264.4,114.7,263.2,115.1,262,115.1
								z M255.3,96.9l6.6,6.5l15-15.2l-6.6-6.5L255.3,96.9z"/>
						</g>
					</g>
				</g>
			</g>
			<g class="st0">
				<g>
					<g>
						<g>
							
								<rect x="250.6" y="83.1" transform="matrix(0.7018 -0.7124 0.7124 0.7018 13.4352 217.1961)" class="st1" width="31.1" height="19"/>
						</g>
					</g>
				</g>
			</g>
			<g>
				<g>
					<g>
						<g>
							<g>
								<path class="st2" d="M51.3,72.5L31.2,92.3c-2,2-5.2,1.9-7.1-0.1l-9.9-10c-2-2-1.9-5.2,0.1-7.1l20.1-19.8
									c2-2,5.2-1.9,7.1,0.1l9.9,10C53.3,67.4,53.3,70.6,51.3,72.5z"/>
							</g>
						</g>
					</g>
				</g>
			</g>
			<g class="st3">
				<g>
					<g>
						<path class="st4" d="M23.6,83c-2-2-1.9-5.2,0.1-7.1l19.3-19l-1.5-1.5c-2-2-5.1-2-7.1-0.1L14.3,75.1c-2,2-2,5.1-0.1,7.1l9.9,10
							c2,2,5.1,2,7.1,0.1l0.8-0.8L23.6,83z"/>
					</g>
				</g>
			</g>
			<g>
				<g>
					<g>
						<g>
							<g>
								<path class="st1" d="M25.2,102.7c-3,0-6.2-1.2-8.5-3.6l-12-12.3c-2.2-2.3-3.5-5.4-3.4-8.6c0-3.2,1.3-6.3,3.5-8.5l24.4-24.4
									c4.7-4.7,12.3-4.7,16.9,0.1l12,12.3c2.2,2.3,3.5,5.4,3.4,8.6c0,3.2-1.3,6.3-3.5,8.5l0,0L33.6,99.3
									C31.3,101.5,28.3,102.7,25.2,102.7z M37.6,53.8c-0.1,0-0.1,0-0.1,0.1L13.1,78.2L13,78.3c0,0.1,0,0.1,0.1,0.1l12,12.3
									c0.1,0.1,0.2,0.1,0.4,0l24.4-24.3l0,0l0.1-0.1c0,0,0-0.1-0.1-0.1l-12-12.3C37.8,53.9,37.6,53.8,37.6,53.8z M53.9,70.7
									L53.9,70.7L53.9,70.7z"/>
							</g>
						</g>
					</g>
				</g>
			</g>
			<g>
				<g>
					<g>
						<g>
							
								<rect x="42.6" y="78" transform="matrix(0.7124 -0.7018 0.7018 0.7124 -50.692 63.4937)" class="st2" width="19" height="31.1"/>
						</g>
					</g>
					<g>
						<g>
							<path class="st1" d="M56.2,116.1c-1.2,0-2.5-0.5-3.4-1.4L30.9,92.6c-0.9-0.9-1.4-2.1-1.4-3.4s0.5-2.5,1.4-3.4l13.5-13.3
								c1.9-1.9,5-1.8,6.8,0.1L73,94.7c0.9,0.9,1.4,2.1,1.4,3.4s-0.5,2.5-1.4,3.4l-13.5,13.3C58.6,115.7,57.4,116.1,56.2,116.1z
								 M41.2,89.2l15,15.2l6.6-6.5l-15-15.2L41.2,89.2z"/>
						</g>
					</g>
				</g>
			</g>
			<g class="st0">
				<g>
					<g>
						<g>
							
								<rect x="42.6" y="78" transform="matrix(0.7124 -0.7018 0.7018 0.7124 -50.692 63.4937)" class="st1" width="19" height="31.1"/>
						</g>
					</g>
				</g>
			</g>
			<g>
				<g>
					<g>
						<ellipse class="st2" cx="160" cy="204.4" rx="153.6" ry="153.5"/>
					</g>
				</g>
			</g>
			<g>
				<g class="st0">
					<g>
						<g>
							<path class="st1" d="M22,271.8c0.3,0.6,0.6,1.1,0.8,1.7C22.5,272.9,22.2,272.4,22,271.8z"/>
						</g>
					</g>
				</g>
				<g class="st0">
					<g>
						<g>
							<path class="st1" d="M20.6,268.9c0.3,0.6,0.5,1.1,0.8,1.7C21.1,270.1,20.9,269.5,20.6,268.9z"/>
						</g>
					</g>
				</g>
				<g class="st0">
					<g>
						<g>
							<path class="st1" d="M25.6,278.7c0.3,0.5,0.6,1.1,0.9,1.6C26.2,279.8,25.9,279.3,25.6,278.7z"/>
						</g>
					</g>
				</g>
				<g class="st0">
					<g>
						<g>
							<path class="st1" d="M23.4,274.6c0.5,1.1,1.1,2.1,1.7,3.1C24.5,276.7,23.9,275.6,23.4,274.6z"/>
						</g>
					</g>
				</g>
				<g class="st0">
					<g>
						<g>
							<path class="st1" d="M27.2,281.5c0.3,0.5,0.6,1.1,0.9,1.6C27.8,282.6,27.5,282,27.2,281.5z"/>
						</g>
					</g>
				</g>
				<g class="st0">
					<g>
						<g>
							<path class="st1" d="M51,312.5c0.4,0.4,0.8,0.8,1.2,1.2C51.7,313.3,51.3,312.9,51,312.5z"/>
						</g>
					</g>
				</g>
				<g class="st0">
					<g>
						<g>
							<path class="st1" d="M155.5,357.8c0.4,0,0.7,0,1.1,0C156.2,357.9,155.8,357.8,155.5,357.8z"/>
						</g>
					</g>
				</g>
				<g class="st0">
					<g>
						<g>
							<path class="st1" d="M148.4,357.5c0.3,0,0.6,0,0.8,0.1C148.9,357.5,148.7,357.5,148.4,357.5z"/>
						</g>
					</g>
				</g>
				<g class="st0">
					<g>
						<g>
							<path class="st1" d="M144.2,357.1c0.3,0,0.5,0.1,0.8,0.1C144.7,357.2,144.5,357.1,144.2,357.1z"/>
						</g>
					</g>
				</g>
				<g class="st0">
					<g>
						<g>
							<path class="st1" d="M140.4,356.7c0.4,0.1,0.8,0.1,1.1,0.1C141.2,356.8,140.8,356.7,140.4,356.7z"/>
						</g>
					</g>
				</g>
				<g class="st0">
					<g>
						<g>
							<path class="st1" d="M49.9,311.4c-0.4-0.4-0.8-0.8-1.2-1.2C49.1,310.6,49.5,311,49.9,311.4z"/>
						</g>
					</g>
				</g>
				<g class="st0">
					<g>
						<g>
							<path class="st1" d="M28.8,284.2c0.3,0.5,0.7,1.1,1,1.6C29.4,285.3,29.1,284.7,28.8,284.2z"/>
						</g>
					</g>
				</g>
				<g class="st0">
					<g>
						<g>
							<path class="st1" d="M151.8,357.7c0.4,0,0.8,0,1.1,0.1C152.6,357.7,152.2,357.7,151.8,357.7z"/>
						</g>
					</g>
				</g>
				<g class="st0">
					<g>
						<g>
							<path class="st1" d="M312,190c0-0.1,0-0.1,0.1-0.2C312.1,189.9,312.1,189.9,312,190z"/>
						</g>
					</g>
				</g>
				<g class="st0">
					<g>
						<g>
							<path class="st1" d="M311.3,192.5c0-0.1,0-0.1,0.1-0.2C311.4,192.3,311.4,192.4,311.3,192.5z"/>
						</g>
					</g>
				</g>
				<g class="st0">
					<g>
						<g>
							<path class="st1" d="M30.2,286.5c0.7,1.1,1.4,2.1,2,3.1C31.6,288.6,30.9,287.6,30.2,286.5z"/>
						</g>
					</g>
				</g>
				<g class="st0">
					<g>
						<g>
							<path class="st1" d="M45.9,307.2c0.6,0.6,1.2,1.3,1.7,1.9C47.1,308.4,46.5,307.8,45.9,307.2z"/>
						</g>
					</g>
				</g>
				<g class="st0">
					<g>
						<g>
							<path class="st1" d="M19.7,261.1C44.8,312,97.1,347,157.7,347c84.3,0,152.8-67.9,153.6-152l0,0c-9.5,25.9-33.3,55-87.3,77.7
								C119.4,316.8,39.9,262.1,8.2,210.6c1.1,19.5,5.8,38,13.4,54.9C21,264,20.3,262.6,19.7,261.1z"/>
						</g>
					</g>
				</g>
				<g class="st0">
					<g>
						<g>
							<path class="st1" d="M43.5,304.5c0.4,0.4,0.7,0.9,1.1,1.3C44.3,305.3,43.9,304.9,43.5,304.5z"/>
						</g>
					</g>
				</g>
				<g class="st0">
					<g>
						<g>
							<path class="st1" d="M137,356.2c0.4,0.1,0.7,0.1,1.1,0.2C137.7,356.3,137.4,356.2,137,356.2z"/>
						</g>
					</g>
				</g>
				<g class="st0">
					<g>
						<g>
							<path class="st1" d="M310.6,194.9v-0.1C310.6,194.8,310.6,194.9,310.6,194.9z"/>
						</g>
					</g>
				</g>
				<g class="st0">
					<g>
						<g>
							<path class="st1" d="M33,290.8c0.3,0.5,0.7,1,1,1.5C33.7,291.8,33.3,291.3,33,290.8z"/>
						</g>
					</g>
				</g>
				<g class="st0">
					<g>
						<g>
							<path class="st1" d="M34.8,293.4c0.3,0.5,0.7,1,1.1,1.5C35.5,294.3,35.2,293.9,34.8,293.4z"/>
						</g>
					</g>
				</g>
				<g class="st0">
					<g>
						<g>
							<path class="st1" d="M41.5,302c0.4,0.5,0.7,0.9,1.1,1.3C42.2,302.9,41.8,302.5,41.5,302z"/>
						</g>
					</g>
				</g>
				<g class="st0">
					<g>
						<g>
							<path class="st1" d="M39.5,299.6c0.4,0.5,0.7,0.9,1.1,1.4C40.2,300.5,39.8,300,39.5,299.6z"/>
						</g>
					</g>
				</g>
				<g class="st0">
					<g>
						<g>
							<path class="st1" d="M36.7,295.9c0.6,0.8,1.3,1.7,1.9,2.5C38,297.6,37.3,296.8,36.7,295.9z"/>
						</g>
					</g>
				</g>
				<g class="st0">
					<g>
						<g>
							<path class="st1" d="M61.4,322.1c0.4,0.3,0.8,0.6,1.2,1C62.2,322.7,61.8,322.4,61.4,322.1z"/>
						</g>
					</g>
				</g>
				<g class="st0">
					<g>
						<g>
							<path class="st1" d="M79.1,334.9c0.4,0.2,0.8,0.5,1.2,0.7C79.8,335.4,79.5,335.1,79.1,334.9z"/>
						</g>
					</g>
				</g>
				<g class="st0">
					<g>
						<g>
							<path class="st1" d="M76.3,333.1c0.4,0.2,0.7,0.5,1.1,0.7C77.1,333.6,76.7,333.4,76.3,333.1z"/>
						</g>
					</g>
				</g>
				<g class="st0">
					<g>
						<g>
							<path class="st1" d="M72.8,330.8c0.3,0.2,0.7,0.5,1,0.7C73.5,331.3,73.1,331,72.8,330.8z"/>
						</g>
					</g>
				</g>
				<g class="st0">
					<g>
						<g>
							<path class="st1" d="M70,328.8c0.4,0.3,0.8,0.6,1.2,0.8C70.8,329.4,70.4,329.1,70,328.8z"/>
						</g>
					</g>
				</g>
				<g class="st0">
					<g>
						<g>
							<path class="st1" d="M81.9,336.6c0.4,0.2,0.7,0.4,1.1,0.7C82.7,337.1,82.3,336.8,81.9,336.6z"/>
						</g>
					</g>
				</g>
				<g class="st0">
					<g>
						<g>
							<path class="st1" d="M85.7,338.8c0.3,0.1,0.5,0.3,0.8,0.4C86.2,339.1,86,338.9,85.7,338.8z"/>
						</g>
					</g>
				</g>
				<g class="st0">
					<g>
						<g>
							<path class="st1" d="M133.7,355.7c0.1,0,0.2,0,0.2,0C133.8,355.7,133.8,355.7,133.7,355.7z"/>
						</g>
					</g>
				</g>
				<g class="st0">
					<g>
						<g>
							<path class="st1" d="M88.6,340.3c0.4,0.2,0.8,0.4,1.1,0.6C89.3,340.7,88.9,340.5,88.6,340.3z"/>
						</g>
					</g>
				</g>
				<g class="st0">
					<g>
						<g>
							<path class="st1" d="M53.3,314.8c0.5,0.5,1.1,1.1,1.7,1.6C54.4,315.9,53.9,315.4,53.3,314.8z"/>
						</g>
					</g>
				</g>
				<g class="st0">
					<g>
						<g>
							<path class="st1" d="M67.4,326.9c0.4,0.3,0.8,0.6,1.2,0.9C68.2,327.4,67.8,327.1,67.4,326.9z"/>
						</g>
					</g>
				</g>
				<g class="st0">
					<g>
						<g>
							<path class="st1" d="M64.6,324.7c0.4,0.3,0.8,0.6,1.2,1C65.4,325.4,65,325.1,64.6,324.7z"/>
						</g>
					</g>
				</g>
				<g class="st0">
					<g>
						<g>
							<path class="st1" d="M58.9,320c0.4,0.3,0.8,0.7,1.2,1C59.7,320.7,59.3,320.3,58.9,320z"/>
						</g>
					</g>
				</g>
				<g class="st0">
					<g>
						<g>
							<path class="st1" d="M56.5,317.8c0.4,0.3,0.8,0.7,1.2,1C57.3,318.5,56.9,318.2,56.5,317.8z"/>
						</g>
					</g>
				</g>
				<g class="st0">
					<g>
						<g>
							<path class="st1" d="M118.7,352.3c0.3,0.1,0.5,0.1,0.8,0.2C119.2,352.4,118.9,352.3,118.7,352.3z"/>
						</g>
					</g>
				</g>
				<g class="st0">
					<g>
						<g>
							<path class="st1" d="M115.1,351.2c0.4,0.1,0.8,0.2,1.1,0.3C115.9,351.5,115.5,351.4,115.1,351.2z"/>
						</g>
					</g>
				</g>
				<g class="st0">
					<g>
						<g>
							<path class="st1" d="M122.6,353.3c0.3,0.1,0.6,0.1,0.9,0.2C123.2,353.5,122.9,353.4,122.6,353.3z"/>
						</g>
					</g>
				</g>
				<g class="st0">
					<g>
						<g>
							<path class="st1" d="M125.9,354.1c0.4,0.1,0.8,0.2,1.1,0.3C126.7,354.3,126.3,354.2,125.9,354.1z"/>
						</g>
					</g>
				</g>
				<g class="st0">
					<g>
						<g>
							<path class="st1" d="M111.9,350.2c0.4,0.1,0.7,0.2,1.1,0.4C112.6,350.5,112.3,350.3,111.9,350.2z"/>
						</g>
					</g>
				</g>
				<g class="st0">
					<g>
						<g>
							<path class="st1" d="M129.4,354.8c0.3,0.1,0.7,0.1,1,0.2C130,355,129.7,354.9,129.4,354.8z"/>
						</g>
					</g>
				</g>
				<g class="st0">
					<g>
						<g>
							<path class="st1" d="M104.7,347.6c0.3,0.1,0.7,0.3,1,0.4C105.4,347.9,105.1,347.8,104.7,347.6z"/>
						</g>
					</g>
				</g>
				<g class="st0">
					<g>
						<g>
							<path class="st1" d="M98.5,345.1c0.3,0.1,0.7,0.3,1,0.4C99.2,345.4,98.8,345.2,98.5,345.1z"/>
						</g>
					</g>
				</g>
				<g class="st0">
					<g>
						<g>
							<path class="st1" d="M94.8,343.4c0.3,0.1,0.6,0.3,0.9,0.4C95.3,343.7,95,343.5,94.8,343.4z"/>
						</g>
					</g>
				</g>
				<g class="st0">
					<g>
						<g>
							<path class="st1" d="M101.5,346.4c0.4,0.2,0.8,0.3,1.2,0.5C102.3,346.7,101.9,346.5,101.5,346.4z"/>
						</g>
					</g>
				</g>
				<g class="st0">
					<g>
						<g>
							<path class="st1" d="M91.5,341.8c0.4,0.2,0.8,0.4,1.2,0.6C92.3,342.2,91.9,342,91.5,341.8z"/>
						</g>
					</g>
				</g>
				<g class="st0">
					<g>
						<g>
							<path class="st1" d="M108.8,349.2c0.2,0.1,0.3,0.1,0.5,0.2C109.1,349.3,109,349.2,108.8,349.2z"/>
						</g>
					</g>
				</g>
			</g>
			<g class="st5">
				<g>
					<g>
						<path class="st4" d="M74.9,80c0,0-23,9.8-39.3,34.3s3.8,30.7,36.8,0S90,72,74.9,80z"/>
					</g>
				</g>
			</g>
			<g class="st5">
				<g>
					<g>
						
							<ellipse transform="matrix(0.2778 -0.9606 0.9606 0.2778 -127.7966 139.7441)" class="st4" cx="29" cy="154.9" rx="11.6" ry="7.6"/>
					</g>
				</g>
			</g>
			<g>
				<g>
					<g>
						<path class="st1" d="M160,362.7c-87.4,0-158.4-71-158.4-158.4S72.6,46,160,46s158.4,71,158.4,158.4S247.4,362.7,160,362.7z
							 M160,55.7c-82,0-148.8,66.7-148.8,148.7S78,353.1,160,353.1s148.8-66.7,148.8-148.7S242,55.7,160,55.7z"/>
					</g>
				</g>
			</g>
			<g class="st3">
				<g>
					<g>
						<path class="st4" d="M63.7,107.5C8.4,160.9,14,234.7,67,289.4c52.9,54.7,126.1,59.5,181.3,6.1s66.4-128.9,18.1-180.8
							c-27.2-29.1-67.3-37-106.4-37.2C124.5,77.3,89.9,82.2,63.7,107.5z M253.5,283.3c-44.6,53.1-123.4,60.3-176,16.1
							s-59.2-123-14.6-176s123.4-60.3,176-16.1C291.5,151.4,298,230.2,253.5,283.3z"/>
					</g>
				</g>
			</g>
			<g>
				<g>
					<g>
						<ellipse class="st2" cx="160" cy="204.4" rx="126.9" ry="126.9"/>
					</g>
				</g>
				<g>
					<g>
						<path class="st1" d="M160,335.5c-72.3,0-131.2-58.8-131.2-131.1S87.7,73.2,160,73.2S291.2,132,291.2,204.4
							S232.3,335.5,160,335.5z M160,81.8c-67.6,0-122.6,55-122.6,122.6S92.4,327,160,327s122.6-55,122.6-122.6S227.6,81.8,160,81.8z
							"/>
					</g>
				</g>
			</g>
			<g>
				<g>
					<g>
						<ellipse class="st4" cx="160" cy="204.4" rx="107.6" ry="107.6"/>
					</g>
				</g>
				<g>
					<g>
						<path class="st1" d="M160,312.3c-59.6,0-108-48.4-108-107.9s48.4-108,108-108s108,48.4,108,107.9S219.6,312.3,160,312.3z
							 M160,97.2c-59.1,0-107.2,48.1-107.2,107.2S100.9,311.5,160,311.5s107.2-48.1,107.2-107.2S219.1,97.2,160,97.2z"/>
					</g>
				</g>
			</g>
			<g>
				<g>
					<g>
						<ellipse class="st4" cx="160" cy="204.4" rx="107.6" ry="107.6"/>
					</g>
				</g>
				<g>
					<g>
						<path class="st1" d="M160,312.3c-59.6,0-108-48.4-108-107.9s48.4-108,108-108s108,48.4,108,107.9S219.6,312.3,160,312.3z
							 M160,97.2c-59.1,0-107.2,48.1-107.2,107.2S100.9,311.5,160,311.5s107.2-48.1,107.2-107.2S219.1,97.2,160,97.2z"/>
					</g>
				</g>
			</g>
			<g class="st0">
				<g>
					<g>
						<path class="st1" d="M160,92.6c-61.8,0-111.8,50-111.8,111.8s50,111.7,111.8,111.7s111.8-50,111.8-111.8S221.8,92.6,160,92.6z
							 M160,306.9c-54.4,0-98.5-48.2-98.5-102.6s44.1-103.4,98.5-103.4s98.5,49.1,98.5,103.5S214.4,306.9,160,306.9z"/>
					</g>
				</g>
			</g>
			<g class="st0">
				<g>
					<g>
						<path class="st1" d="M160,77.5c-65.7,0-119,61.2-119,126.9s53.3,126.9,119,126.9S279,270,279,204.4
							C279,138.7,225.7,77.5,160,77.5z M160,316.1c-61.8,0-111.8-50-111.8-111.8S98.2,92.6,160,92.6s111.8,50,111.8,111.8
							S221.8,316.1,160,316.1z"/>
					</g>
				</g>
			</g>
			<g>
				<g>
					<g>
						<path class="st1" d="M160,319.5c-63.5,0-115.2-51.6-115.2-115.1S96.5,89.2,160,89.2s115.2,51.6,115.2,115.1
							S223.5,319.5,160,319.5z M160,96.3c-59.6,0-108.2,48.5-108.2,108.1S100.4,312.5,160,312.5S268.2,264,268.2,204.4
							S219.6,96.3,160,96.3z"/>
					</g>
				</g>
			</g>
			<g>
				<g>
					<g>
						<g>
							<g>
								<path class="st1" d="M222.5,145.2c-0.8,0-1.6-0.3-2.3-0.9c-1.3-1.3-1.3-3.3,0-4.6l16.5-16.5c1.3-1.3,3.3-1.3,4.6,0
									s1.3,3.3,0,4.6l-16.5,16.5C224.1,144.9,223.3,145.2,222.5,145.2z"/>
							</g>
						</g>
					</g>
				</g>
			</g>
			<g>
				<g>
					<g>
						<g>
							<g>
								<path class="st1" d="M244.9,183.3c-1.4,0-2.7-0.9-3.1-2.3c-0.5-1.7,0.5-3.5,2.2-4l22.5-6.4c1.7-0.5,3.5,0.5,4,2.2
									s-0.5,3.5-2.2,4l-22.5,6.4C245.5,183.3,245.2,183.3,244.9,183.3z"/>
							</g>
						</g>
					</g>
				</g>
			</g>
			<g>
				<g>
					<g>
						<g>
							<g>
								<path class="st1" d="M268.3,234.6c-0.3,0-0.5,0-0.8-0.1l-22.7-5.7c-1.7-0.4-2.8-2.2-2.3-3.9c0.4-1.7,2.2-2.8,3.9-2.3
									l22.7,5.7c1.7,0.4,2.8,2.2,2.3,3.9C271.1,233.7,269.8,234.6,268.3,234.6z"/>
							</g>
						</g>
					</g>
				</g>
			</g>
			<g>
				<g>
					<g>
						<g>
							<g>
								<path class="st1" d="M239,286.5c-0.8,0-1.6-0.3-2.3-0.9l-16.5-16.5c-1.3-1.3-1.3-3.3,0-4.6s3.3-1.3,4.6,0l16.5,16.5
									c1.3,1.3,1.3,3.3,0,4.6C240.6,286.2,239.8,286.5,239,286.5z"/>
							</g>
						</g>
					</g>
				</g>
			</g>
			<g>
				<g>
					<g>
						<g>
							<g>
								<path class="st1" d="M188.1,315.6c-1.4,0-2.7-1-3.1-2.4l-5.9-22.6c-0.5-1.7,0.6-3.5,2.3-3.9c1.7-0.5,3.5,0.6,3.9,2.3
									l5.9,22.6c0.5,1.7-0.6,3.5-2.3,3.9C188.7,315.6,188.4,315.6,188.1,315.6z"/>
							</g>
						</g>
					</g>
				</g>
			</g>
			<g>
				<g>
					<g>
						<g>
							<g>
								<path class="st1" d="M130.1,315.1c-0.3,0-0.6,0-0.9-0.1c-1.7-0.5-2.7-2.3-2.2-4l6.3-22.5c0.5-1.7,2.3-2.7,4-2.2
									s2.7,2.3,2.2,4l-6.3,22.5C132.8,314.2,131.5,315.1,130.1,315.1z"/>
							</g>
						</g>
					</g>
				</g>
			</g>
			<g>
				<g>
					<g>
						<g>
							<g>
								<path class="st1" d="M81,286.5c-0.8,0-1.6-0.3-2.3-0.9c-1.3-1.3-1.3-3.3,0-4.6l16.5-16.5c1.3-1.3,3.3-1.3,4.6,0
									s1.3,3.3,0,4.6l-16.5,16.5C82.7,286.2,81.9,286.5,81,286.5z"/>
							</g>
						</g>
					</g>
				</g>
			</g>
			<g>
				<g>
					<g>
						<g>
							<g>
								<path class="st1" d="M51.4,233.4c-1.5,0-2.8-1-3.1-2.5c-0.4-1.7,0.7-3.5,2.4-3.9l22.7-5.4c1.7-0.4,3.5,0.7,3.9,2.4
									s-0.7,3.5-2.4,3.9l-22.7,5.4C51.8,233.4,51.6,233.4,51.4,233.4z"/>
							</g>
						</g>
					</g>
				</g>
			</g>
			<g>
				<g>
					<g>
						<g>
							<g>
								<path class="st1" d="M74.9,183.9c-0.3,0-0.6,0-0.9-0.1l-22.5-6.3c-1.7-0.5-2.7-2.3-2.2-4s2.3-2.7,4-2.2l22.5,6.3
									c1.7,0.5,2.7,2.3,2.2,4C77.6,183,76.3,183.9,74.9,183.9z"/>
							</g>
						</g>
					</g>
				</g>
			</g>
			<g>
				<g>
					<g>
						<g>
							<g>
								<path class="st1" d="M97.6,145.2c-0.8,0-1.6-0.3-2.3-0.9l-16.5-16.5c-1.3-1.3-1.3-3.3,0-4.6s3.3-1.3,4.6,0l16.5,16.5
									c1.3,1.3,1.3,3.3,0,4.6C99.2,144.9,98.4,145.2,97.6,145.2z"/>
							</g>
						</g>
					</g>
				</g>
			</g>
			<g>
				<g>
					<g>
						<g>
							<g>
								<path class="st1" d="M136.4,122.5c-1.4,0-2.7-0.9-3.1-2.4l-6.2-22.5c-0.5-1.7,0.5-3.5,2.2-4s3.5,0.5,4,2.2l6.2,22.5
									c0.5,1.7-0.5,3.5-2.2,4C137,122.5,136.7,122.5,136.4,122.5z"/>
							</g>
						</g>
					</g>
				</g>
			</g>
			<g>
				<g>
					<g>
						<g>
							<g>
								<path class="st1" d="M181.8,122c-0.3,0-0.5,0-0.8-0.1c-1.7-0.4-2.8-2.2-2.3-3.9l5.8-22.6c0.4-1.7,2.2-2.8,3.9-2.3
									c1.7,0.4,2.8,2.2,2.3,3.9l-5.8,22.6C184.6,121.1,183.2,122,181.8,122z"/>
							</g>
						</g>
					</g>
				</g>
			</g>
			<g class="st5">
				<g>
					<g>
						<path class="st4" d="M112.3,108c-6.7,3.3-13,7.3-18.8,11.8l162.3,133.6c3.4-6.5,6.1-13.5,8.1-20.7L112.3,108z"/>
					</g>
				</g>
			</g>
			<g class="st5">
				<g>
					<g>
						<path class="st4" d="M204.6,302.2c8.8-4,17-9.2,24.4-15.3l-155.1-147c-4.9,6.5-9.1,13.7-12.4,21.2L204.6,302.2z"/>
					</g>
				</g>
			</g>
			<g class="st0">
				<g>
					<g>
						<path class="st1" d="M180.1,11.6c0,0-3.8,12.5-22.5,10.9l2.3,2.3H183v-10L180.1,11.6z"/>
					</g>
				</g>
			</g>
			<g class="st0">
				<g>
					<g>
						<path class="st1" d="M45.6,53.8c0,0,4.4,18-13.9,32.6l1.6,2.2l24.1-21.4l0.8-8.6L45.6,53.8z"/>
					</g>
				</g>
			</g>
			<g class="st0">
				<g>
					<g>
						<path class="st1" d="M309.7,85.6c0,0-15,3.4-33.8-12.2l-1.2,4.3l21.1,21.9l9.3-4.7L309.7,85.6z"/>
					</g>
				</g>
			</g>
		</g>
	</g>
</g>
</svg>
